# xmcd
#
# Track frame offsets: 
#        150
#        20328
#        34672
#        53218
#        70048
#        89849
#        109292
#        131422
#        153472
#        170379
#        189211
#        202129
#        225264
#        234068
#        248529
#        265474
#
# Disc length: 3841 seconds
#
# Revision: 0
# Processed by: cddbd v1.5.2PL0 Copyright (c) Steve Scherf et al.
# Submitted via: ExactAudioCopyFreeDBPlugin 1.0
#
DISCID=cc0eff10
DTITLE=The Aces And Their Guests - Storyville - The Chicago Blues Box 
DTITLE=2 - CD7
DYEAR=2017
DGENRE=Blues
TTITLE0=Rock Me Baby
TTITLE1=You're The One
TTITLE2=Baby What Do You Want Me To Do
TTITLE3=Someday Baby
TTITLE4=Off The Wall
TTITLE5=Bobby's Rock
TTITLE6=Kansas City
TTITLE7=Honky Tonk
TTITLE8=Don't Throw You Love On Me
TTITLE9=C. C. Rider
TTITLE10=Sweet Home Chicago
TTITLE11=Hide Away
TTITLE12=Tribute To Little Walter
TTITLE13=The Ace's Shuffle
TTITLE14=Blues With A Feeling
TTITLE15=Honky Tonk No.2
EXTD=
EXTT0=
EXTT1=
EXTT2=
EXTT3=
EXTT4=
EXTT5=
EXTT6=
EXTT7=
EXTT8=
EXTT9=
EXTT10=
EXTT11=
EXTT12=
EXTT13=
EXTT14=
EXTT15=
PLAYORDER=
